<svg xmlns="http://www.w3.org/2000/svg" width="93.08" height="21.37" viewBox="0 0 93.08 21.37"><title>logo-nav</title><path d="M12.75,4.74" transform="translate(-0.02)" style="fill:#1b98e0"/><path d="M16.44,0H13.67a1.67,1.67,0,0,0-1.3.69L.56,15.9a2.53,2.53,0,0,0-.42.85,3,3,0,0,0-.12.82v3.76H3.56" transform="translate(-0.02)" style="fill:#1b98e0"/><path d="M4.07,15.9a2.53,2.53,0,0,0-.42.85,3,3,0,0,0-.12.82v3.76H16.44V0Z" transform="translate(-0.02)" style="fill:#13293d"/><path d="M89.19,9.95a2.71,2.71,0,0,0-1-.72A3.32,3.32,0,0,0,86.82,9a3.27,3.27,0,0,0-2.42.87,4.31,4.31,0,0,0-1.12,2.48h6.64A4.41,4.41,0,0,0,89.73,11,3,3,0,0,0,89.19,9.95Z" transform="translate(-0.02)" style="fill:none"/><path d="M30.56,8A4.21,4.21,0,0,0,29,6.84a5.26,5.26,0,0,0-2.13-.41,6.2,6.2,0,0,0-1.37.14A5.33,5.33,0,0,0,24.33,7a6.56,6.56,0,0,0-1,.64,8.06,8.06,0,0,0-.94.83l-.24-1.16a.87.87,0,0,0-.9-.64H19V21.34h3.54V10.72a6.15,6.15,0,0,1,1.52-1.13,3.68,3.68,0,0,1,1.72-.41,2.31,2.31,0,0,1,1.87.74A3.14,3.14,0,0,1,28.29,12v9.34h3.53V12a7.48,7.48,0,0,0-.32-2.25A5,5,0,0,0,30.56,8Z" transform="translate(-0.02)" style="fill:#13293d"/><path d="M45.06,17.32a.94.94,0,0,0-.59.21l-.62.46a4.29,4.29,0,0,1-.88.46,3.76,3.76,0,0,1-1.41.22A3.47,3.47,0,0,1,40,18.35a3.1,3.1,0,0,1-1.14-.94,4.46,4.46,0,0,1-.72-1.54,7.93,7.93,0,0,1-.25-2.09,8.19,8.19,0,0,1,.23-2,4.35,4.35,0,0,1,.69-1.52,3.09,3.09,0,0,1,1.17-1,3.73,3.73,0,0,1,1.63-.34,3.92,3.92,0,0,1,1.22.16,4.62,4.62,0,0,1,.85.37l.62.37a1,1,0,0,0,.53.16.71.71,0,0,0,.44-.11,1.76,1.76,0,0,0,.31-.31l.94-1.29a7,7,0,0,0-2.22-1.52,7.29,7.29,0,0,0-2.88-.53,7.69,7.69,0,0,0-3.06.57,6.27,6.27,0,0,0-2.22,1.58,6.79,6.79,0,0,0-1.37,2.39,9.34,9.34,0,0,0-.46,3A9.2,9.2,0,0,0,34.87,17a7.13,7.13,0,0,0,1.42,2.38,6,6,0,0,0,2.1,1.48,6.51,6.51,0,0,0,2.56.51,10.85,10.85,0,0,0,1.56-.11A7.24,7.24,0,0,0,44,20.84a6.88,6.88,0,0,0,1.42-.74A6.39,6.39,0,0,0,46.72,19l-1-1.29A.72.72,0,0,0,45.06,17.32Z" transform="translate(-0.02)" style="fill:#13293d"/><rect x="49.14" y="0.08" width="3.53" height="21.26" style="fill:#13293d"/><rect x="56.9" y="6.66" width="3.53" height="14.68" style="fill:#13293d"/><path d="M76,8a4.21,4.21,0,0,0-1.55-1.14,5.26,5.26,0,0,0-2.13-.41,6.2,6.2,0,0,0-1.37.14A5.33,5.33,0,0,0,69.73,7a6.55,6.55,0,0,0-1,.64,8,8,0,0,0-.94.83l-.24-1.16a.87.87,0,0,0-1-.62H64.44V21.34H68V10.72a6.15,6.15,0,0,1,1.52-1.13,3.68,3.68,0,0,1,1.72-.41,2.31,2.31,0,0,1,1.87.74A3.13,3.13,0,0,1,73.7,12v9.34h3.53V12a7.48,7.48,0,0,0-.32-2.25A5,5,0,0,0,76,8Z" transform="translate(-0.02)" style="fill:#13293d"/><path d="M92.71,14.16a.52.52,0,0,0,.25-.21,1.07,1.07,0,0,0,.13-.41,5.12,5.12,0,0,0,0-.67A7.89,7.89,0,0,0,92.62,10,5.92,5.92,0,0,0,91.3,7.95a5.6,5.6,0,0,0-2-1.29,7.13,7.13,0,0,0-2.55-.44,7.31,7.31,0,0,0-3,.57,6.57,6.57,0,0,0-2.19,1.55,6.79,6.79,0,0,0-1.35,2.33,8.12,8.12,0,0,0-.49,2.83,9.52,9.52,0,0,0,.56,3.4,7,7,0,0,0,1.53,2.46,6.37,6.37,0,0,0,2.29,1.5,7.84,7.84,0,0,0,2.85.51,11.61,11.61,0,0,0,1.6-.11,8.35,8.35,0,0,0,1.62-.39,7.38,7.38,0,0,0,1.52-.74A5.89,5.89,0,0,0,93,19l-1-1.29a.83.83,0,0,0-.27-.24.77.77,0,0,0-.37-.09,1.37,1.37,0,0,0-.68.2l-.82.44a6.9,6.9,0,0,1-1.09.44,4.85,4.85,0,0,1-1.48.2,3.79,3.79,0,0,1-2.8-1.06,5.05,5.05,0,0,1-1.22-3.32h9.07A1.07,1.07,0,0,0,92.71,14.16Zm-9.4-2.07a4.31,4.31,0,0,1,1.12-2.42,3.27,3.27,0,0,1,2.42-.87,3.32,3.32,0,0,1,1.37.26,2.71,2.71,0,0,1,1,.72,3,3,0,0,1,.57,1.07A4.41,4.41,0,0,1,90,12.14Z" transform="translate(-0.02)" style="fill:#13293d"/><polygon points="60.44 0.08 60.1 0.08 57.27 0.08 56.9 0.08 56.9 0.47 56.9 3.17 56.9 3.56 57.27 3.56 60.1 3.56 60.44 3.56 60.44 3.23 60.44 0.41 60.44 0.08" style="fill:#13293d"/></svg>