<svg xmlns="http://www.w3.org/2000/svg" viewBox="0 0 556.16 110.66"><defs><style>.cls-1,.cls-4{fill:#13293d;}.cls-2{fill:#1b98e0;}.cls-3{fill:#247ba0;}.cls-4{stroke:#13293d;stroke-miterlimit:10;}</style></defs><title>Asset 1</title><g id="Layer_2" data-name="Layer 2"><g id="Purpose"><path class="cls-1" d="M76.62,49.65v9.49A34.77,34.77,0,0,1,50.5,47.27L47.65,61.51l10,9.5v35.61H48.13V78.13l-10-9.5L33.41,89.52.18,82.88l1.9-9.5,23.27,4.75,7.59-38.45L24.39,43V59.14H14.9V36.83L39.59,26.38c1.42,0,2.37-.47,3.79-.47a9.78,9.78,0,0,1,8.07,4.74l4.74,7.6A23.37,23.37,0,0,0,76.62,49.65Z" transform="translate(-0.18 -0.25)"/><path class="cls-2" d="M50.5,4.54A9.49,9.49,0,1,1,41,14,9.52,9.52,0,0,1,50.5,4.54Z" transform="translate(-0.18 -0.25)"/><path class="cls-3" d="M316.34,4.45,314.5,6.29a11.72,11.72,0,0,0-16.58,0l-1.84-1.84A14.33,14.33,0,0,1,316.34,4.45Z" transform="translate(-0.18 -0.25)"/><path class="cls-3" d="M312.66,8.13,310.82,10a6.53,6.53,0,0,0-9.22,0l-1.84-1.84A9.14,9.14,0,0,1,312.66,8.13Z" transform="translate(-0.18 -0.25)"/><path class="cls-3" d="M309,11.82l-2.76,2.76-2.76-2.76A3.89,3.89,0,0,1,309,11.82Z" transform="translate(-0.18 -0.25)"/><path class="cls-1" d="M292,12.83V98.34a12.57,12.57,0,0,1-12.57,12.57H239.19a12.57,12.57,0,0,1-12.57-12.57V12.83A12.58,12.58,0,0,1,239.19.25h40.24A12.58,12.58,0,0,1,292,12.83ZM281.94,85.76V15.34H236.68V85.76ZM266.85,98.34a7.55,7.55,0,1,0-7.54,7.54A7.53,7.53,0,0,0,266.85,98.34Z" transform="translate(-0.18 -0.25)"/><path class="cls-2" d="M259.31,90.79a7.55,7.55,0,1,1-7.55,7.55A7.53,7.53,0,0,1,259.31,90.79Z" transform="translate(-0.18 -0.25)"/><path class="cls-3" d="M556.34,60.13A45.15,45.15,0,0,1,516,100.58V60.13Z" transform="translate(-0.18 -0.25)"/><path class="cls-1" d="M506.84,10.58v90a45.25,45.25,0,0,1,0-90Z" transform="translate(-0.18 -0.25)"/><path class="cls-2" d="M516,10.58A45.19,45.19,0,0,1,556.34,51H516Z" transform="translate(-0.18 -0.25)"/><line class="cls-4" x1="120.93" y1="54.54" x2="175.93" y2="54.54"/><line class="cls-4" x1="363.66" y1="54.54" x2="418.66" y2="54.54"/></g></g></svg>