<svg id="Layer_1" data-name="Layer 1" xmlns="http://www.w3.org/2000/svg" viewBox="0 0 94 22"><defs><style>.cls-1{fill:#1b98e0;}.cls-2{fill:#13293d;}.cls-3{fill:none;}</style></defs><title>Artboard 1</title><path class="cls-1" d="M16.59.23H13.8a1.68,1.68,0,0,0-1.32.7L.55,16.28a2.55,2.55,0,0,0-.43.86A3,3,0,0,0,0,18v3.8H11.63a1.45,1.45,0,0,0,1.24-1.6V5"/><path class="cls-2" d="M4.11,16.28a2.55,2.55,0,0,0-.43.86,3,3,0,0,0-.12.83v3.8h13V.23Z"/><path class="cls-3" d="M90,10.27a2.74,2.74,0,0,0-1-.73,3.35,3.35,0,0,0-1.39-.27,3.3,3.3,0,0,0-2.44.88,4.35,4.35,0,0,0-1.13,2.5h6.7a4.45,4.45,0,0,0-.19-1.31A3,3,0,0,0,90,10.27Z"/><path class="cls-2" d="M30.83,8.29a4.25,4.25,0,0,0-1.57-1.16,5.31,5.31,0,0,0-2.15-.41,6.26,6.26,0,0,0-1.39.14,5.38,5.38,0,0,0-1.19.42,6.62,6.62,0,0,0-1.05.65,8.13,8.13,0,0,0-.95.84L22.29,7.6A.88.88,0,0,0,21.38,7H19.2V21.77h3.57V11.05A6.21,6.21,0,0,1,24.3,9.91,3.71,3.71,0,0,1,26,9.49a2.33,2.33,0,0,1,1.88.74,3.16,3.16,0,0,1,.63,2.1v9.43h3.57V12.34a7.55,7.55,0,0,0-.32-2.27A5.08,5.08,0,0,0,30.83,8.29Z"/><path class="cls-2" d="M45.49,17.72a1,1,0,0,0-.6.21l-.63.46a4.33,4.33,0,0,1-.89.46,3.79,3.79,0,0,1-1.38.21,3.5,3.5,0,0,1-1.53-.32,3.13,3.13,0,0,1-1.16-1,4.5,4.5,0,0,1-.73-1.55,8,8,0,0,1-.25-2.11,8.26,8.26,0,0,1,.23-2,4.39,4.39,0,0,1,.7-1.54,3.12,3.12,0,0,1,1.18-1,3.77,3.77,0,0,1,1.65-.34,4,4,0,0,1,1.23.17,4.66,4.66,0,0,1,.86.38l.62.38a1,1,0,0,0,.53.17.72.72,0,0,0,.44-.12,1.77,1.77,0,0,0,.31-.32L47,8.57A7.11,7.11,0,0,0,44.77,7a7.35,7.35,0,0,0-2.91-.53,7.76,7.76,0,0,0-3.09.58,6.32,6.32,0,0,0-2.25,1.6,6.85,6.85,0,0,0-1.38,2.41,9.42,9.42,0,0,0-.47,3,9.29,9.29,0,0,0,.53,3.24,7.2,7.2,0,0,0,1.43,2.4,6,6,0,0,0,2.12,1.49,6.57,6.57,0,0,0,2.58.51,11,11,0,0,0,1.57-.12,7.31,7.31,0,0,0,1.54-.4,6.94,6.94,0,0,0,1.44-.75,6.45,6.45,0,0,0,1.29-1.16l-1-1.3A.72.72,0,0,0,45.49,17.72Z"/><rect class="cls-2" x="49.62" y="0.31" width="3.57" height="21.46"/><rect class="cls-2" x="57.45" y="6.95" width="3.57" height="14.82"/><path class="cls-2" d="M76.68,8.29a4.25,4.25,0,0,0-1.57-1.16A5.31,5.31,0,0,0,73,6.72a6.26,6.26,0,0,0-1.39.14,5.38,5.38,0,0,0-1.19.42,6.61,6.61,0,0,0-1.05.65,8.13,8.13,0,0,0-.95.84L68.14,7.6A.88.88,0,0,0,67.23,7H65V21.77h3.57V11.05a6.21,6.21,0,0,1,1.53-1.14,3.71,3.71,0,0,1,1.73-.42,2.33,2.33,0,0,1,1.88.74,3.16,3.16,0,0,1,.63,2.1v9.43H78V12.34a7.55,7.55,0,0,0-.32-2.27A5.08,5.08,0,0,0,76.68,8.29Z"/><path class="cls-2" d="M93.58,14.53a.53.53,0,0,0,.25-.22,1.08,1.08,0,0,0,.13-.42,5.17,5.17,0,0,0,0-.67,8,8,0,0,0-.48-2.85,6,6,0,0,0-1.33-2.11,5.65,5.65,0,0,0-2-1.31,7.2,7.2,0,0,0-2.58-.45,7.38,7.38,0,0,0-3,.58,6.63,6.63,0,0,0-2.24,1.57A6.86,6.86,0,0,0,81,11a8.2,8.2,0,0,0-.49,2.85A9.61,9.61,0,0,0,81,17.26a7.11,7.11,0,0,0,1.54,2.48,6.43,6.43,0,0,0,2.31,1.52,7.92,7.92,0,0,0,2.87.51,11.72,11.72,0,0,0,1.61-.12,8.42,8.42,0,0,0,1.63-.4,7.45,7.45,0,0,0,1.54-.75,5.94,5.94,0,0,0,1.33-1.16l-1-1.3a.84.84,0,0,0-.27-.25.77.77,0,0,0-.38-.09,1.38,1.38,0,0,0-.69.2l-.82.45a7,7,0,0,1-1.1.45,4.9,4.9,0,0,1-1.49.2,3.82,3.82,0,0,1-2.83-1.07A5.1,5.1,0,0,1,84,14.59h9.16A1.08,1.08,0,0,0,93.58,14.53Zm-9.49-2.09a4.35,4.35,0,0,1,1.13-2.5,3.3,3.3,0,0,1,2.44-.88A3.35,3.35,0,0,1,89,9.33a2.74,2.74,0,0,1,1,.73,3,3,0,0,1,.58,1.08,4.45,4.45,0,0,1,.19,1.31Z"/><polygon class="cls-2" points="61.02 0.31 60.69 0.31 57.83 0.31 57.45 0.31 57.45 0.7 57.45 3.42 57.45 3.81 57.83 3.81 60.69 3.81 61.02 3.81 61.02 3.49 61.02 0.64 61.02 0.31"/></svg>