<svg xmlns="http://www.w3.org/2000/svg" viewBox="0 0 93 21.32"><title>logo</title><path d="M16.92.34H14.16a1.66,1.66,0,0,0-1.3.69L1,16.22a2.53,2.53,0,0,0-.42.85,3,3,0,0,0-.12.82v3.76H12a1.44,1.44,0,0,0,1.23-1.58v-15" transform="translate(-0.5 -0.34)" style="fill:#1b98e0"/><path d="M4.57,16.22a2.53,2.53,0,0,0-.42.85A3,3,0,0,0,4,17.9v3.76H16.92V.34Z" transform="translate(-0.5 -0.34)" style="fill:#13293d"/><path d="M89.57,10.28a2.71,2.71,0,0,0-1-.72,3.31,3.31,0,0,0-1.37-.26,3.26,3.26,0,0,0-2.41.87,4.3,4.3,0,0,0-1.11,2.47h6.63a4.4,4.4,0,0,0-.19-1.29A3,3,0,0,0,89.57,10.28Z" transform="translate(-0.5 -0.34)" style="fill:none"/><path d="M31,8.32a4.21,4.21,0,0,0-1.55-1.14,5.25,5.25,0,0,0-2.13-.41A6.19,6.19,0,0,0,26,6.91a5.32,5.32,0,0,0-1.18.41,6.55,6.55,0,0,0-1,.64,8,8,0,0,0-.94.83l-.24-1.16a.87.87,0,0,0-.9-.64H19.49V21.65H23V11.05a6.15,6.15,0,0,1,1.51-1.13,3.67,3.67,0,0,1,1.71-.41,2.3,2.3,0,0,1,1.86.74,3.13,3.13,0,0,1,.62,2.08v9.33h3.53V12.32a7.47,7.47,0,0,0-.32-2.25A5,5,0,0,0,31,8.32Z" transform="translate(-0.5 -0.34)" style="fill:#13293d"/><path d="M45.51,17.64a.94.94,0,0,0-.59.21l-.62.46a4.29,4.29,0,0,1-.88.46A3.75,3.75,0,0,1,42,19a3.46,3.46,0,0,1-1.51-.32,3.1,3.1,0,0,1-1.14-.94,4.45,4.45,0,0,1-.72-1.54,7.92,7.92,0,0,1-.25-2.09,8.17,8.17,0,0,1,.23-2,4.34,4.34,0,0,1,.69-1.52,3.08,3.08,0,0,1,1.16-1,3.73,3.73,0,0,1,1.63-.34,3.91,3.91,0,0,1,1.22.16,4.61,4.61,0,0,1,.85.37l.61.37a1,1,0,0,0,.53.16.71.71,0,0,0,.44-.11,1.75,1.75,0,0,0,.31-.31L47,8.6A7,7,0,0,0,44.8,7.09a7.28,7.28,0,0,0-2.88-.53,7.68,7.68,0,0,0-3.06.57,6.26,6.26,0,0,0-2.23,1.58,6.78,6.78,0,0,0-1.36,2.39,9.32,9.32,0,0,0-.46,3,9.19,9.19,0,0,0,.52,3.21,7.12,7.12,0,0,0,1.41,2.38,6,6,0,0,0,2.09,1.48,6.5,6.5,0,0,0,2.56.51,10.83,10.83,0,0,0,1.56-.11,7.23,7.23,0,0,0,1.52-.39,6.87,6.87,0,0,0,1.42-.74,6.38,6.38,0,0,0,1.27-1.15l-1-1.29A.72.72,0,0,0,45.51,17.64Z" transform="translate(-0.5 -0.34)" style="fill:#13293d"/><rect x="49.1" y="0.08" width="3.53" height="21.23" style="fill:#13293d"/><rect x="56.84" y="6.65" width="3.53" height="14.66" style="fill:#13293d"/><path d="M76.36,8.32a4.21,4.21,0,0,0-1.55-1.14,5.25,5.25,0,0,0-2.13-.41,6.19,6.19,0,0,0-1.37.14,5.32,5.32,0,0,0-1.18.41,6.54,6.54,0,0,0-1,.64,8,8,0,0,0-.94.83l-.24-1.16A.87.87,0,0,0,67,7H64.86V21.65h3.53V11.05A6.14,6.14,0,0,1,69.9,9.92a3.67,3.67,0,0,1,1.71-.41,2.3,2.3,0,0,1,1.86.74,3.13,3.13,0,0,1,.62,2.08v9.33h3.53V12.32a7.47,7.47,0,0,0-.32-2.25A5,5,0,0,0,76.36,8.32Z" transform="translate(-0.5 -0.34)" style="fill:#13293d"/><path d="M93.09,14.49a.52.52,0,0,0,.25-.21,1.06,1.06,0,0,0,.13-.41,5.12,5.12,0,0,0,0-.66A7.88,7.88,0,0,0,93,10.37a5.91,5.91,0,0,0-1.31-2.09,5.59,5.59,0,0,0-2-1.29,7.12,7.12,0,0,0-2.55-.44,7.3,7.3,0,0,0-3,.57A6.56,6.56,0,0,0,82,8.67,6.78,6.78,0,0,0,80.6,11a8.11,8.11,0,0,0-.49,2.82,9.51,9.51,0,0,0,.56,3.39,7,7,0,0,0,1.53,2.46,6.36,6.36,0,0,0,2.29,1.5,7.83,7.83,0,0,0,2.84.51,11.59,11.59,0,0,0,1.59-.11,8.33,8.33,0,0,0,1.61-.39,7.37,7.37,0,0,0,1.52-.74,5.88,5.88,0,0,0,1.31-1.15l-1-1.29a.83.83,0,0,0-.27-.24.77.77,0,0,0-.37-.09,1.37,1.37,0,0,0-.68.2l-.81.44a6.89,6.89,0,0,1-1.09.44,4.84,4.84,0,0,1-1.48.2,3.78,3.78,0,0,1-2.8-1.06,5,5,0,0,1-1.21-3.31h9.06A1.07,1.07,0,0,0,93.09,14.49ZM83.7,12.42A4.3,4.3,0,0,1,84.81,10a3.26,3.26,0,0,1,2.41-.87,3.31,3.31,0,0,1,1.37.26,2.71,2.71,0,0,1,1,.72,3,3,0,0,1,.57,1.06,4.4,4.4,0,0,1,.19,1.29Z" transform="translate(-0.5 -0.34)" style="fill:#13293d"/><polygon points="60.38 0.08 60.04 0.08 57.22 0.08 56.84 0.08 56.84 0.47 56.84 3.16 56.84 3.55 57.22 3.55 60.04 3.55 60.38 3.55 60.38 3.23 60.38 0.41 60.38 0.08" style="fill:#13293d"/></svg>